<svg xmlns="http://www.w3.org/2000/svg" viewBox="0 0 20 20"><defs><style>.cls-1{fill:#333;}</style></defs><g id="Слой_2" data-name="Слой 2"><g id="Content"><path class="cls-1" d="M19.55,8.3l-2.34-.57a6.48,6.48,0,0,0-.49-1.19l1.2-2a.59.59,0,0,0-.08-.71L16.17,2.16a.59.59,0,0,0-.71-.08l-2,1.2a6.48,6.48,0,0,0-1.19-.49L11.71.45A.61.61,0,0,0,11.13,0H8.79a.62.62,0,0,0-.58.45L7.65,2.79a6.48,6.48,0,0,0-1.19.49l-2-1.2a.59.59,0,0,0-.71.08L2.09,3.83A.58.58,0,0,0,2,4.54l1.2,2a7.26,7.26,0,0,0-.49,1.19L.45,8.3A.59.59,0,0,0,0,8.87v2.34a.58.58,0,0,0,.45.56l2.26.58a7.26,7.26,0,0,0,.49,1.19l-1.2,2a.58.58,0,0,0,.09.71l1.66,1.66a.58.58,0,0,0,.71.09l2-1.2a7.26,7.26,0,0,0,1.19.49l.56,2.26a.62.62,0,0,0,.58.45h2.34a.61.61,0,0,0,.58-.45l.56-2.26a7.26,7.26,0,0,0,1.19-.49l2,1.2a.58.58,0,0,0,.71-.09l1.67-1.66a.59.59,0,0,0,.08-.71l-1.2-2a6.48,6.48,0,0,0,.49-1.19l2.34-.58a.58.58,0,0,0,.45-.56V8.87A.59.59,0,0,0,19.55,8.3ZM10,13A2.93,2.93,0,1,1,12.89,10,2.93,2.93,0,0,1,10,13Z"/></g></g></svg>