<svg xmlns="http://www.w3.org/2000/svg" viewBox="0 0 20 12.87"><defs><style>.cls-1{fill:#333;}</style></defs><g id="Слой_2" data-name="Слой 2"><g id="Content"><path class="cls-1" d="M10,9.66A3.22,3.22,0,1,0,6.78,6.44,3.22,3.22,0,0,0,10,9.66ZM9.76,4.42V5.48A.75.75,0,0,0,9,6.22H8A1.82,1.82,0,0,1,9.76,4.42Z"/><path class="cls-1" d="M10,12.87c4.79,0,8.68-4.41,9.77-5.77a1.07,1.07,0,0,0,0-1.33C18.68,4.42,14.79,0,10,0S1.32,4.42.23,5.77a1.07,1.07,0,0,0,0,1.33C1.32,8.46,5.21,12.87,10,12.87ZM10,1.78A4.66,4.66,0,1,1,5.34,6.44,4.66,4.66,0,0,1,10,1.78Z"/></g></g></svg>