<svg xmlns="http://www.w3.org/2000/svg" viewBox="0 0 16.72 15"><defs><style>.cls-1{fill:#f7931e}</style></defs><g id="Слой_2" data-name="Слой 2"><g id="Content"><path class="cls-1" d="M14.75 15H2a1.94 1.94 0 01-1.7-1 1.93 1.93 0 010-2L6.66 1a2 2 0 013.4 0l6.39 11.07a2 2 0 01-1.7 2.93zM8.36 1a1 1 0 00-.85.49l-6.4 11.05a1 1 0 000 1A1 1 0 002 14h12.75a1 1 0 00.85-.49 1 1 0 000-1L9.21 1.47A1 1 0 008.36 1z"/><path class="cls-1" d="M7.87 4.89h.98v4.9h-.98zm.49 7.18a.65.65 0 01-.65-.65.65.65 0 111.3 0 .65.65 0 01-.65.65z"/></g></g></svg>