<svg xmlns="http://www.w3.org/2000/svg" viewBox="0 0 20 12.87"><defs><style>.cls-1{fill:#333}</style></defs><g id="Слой_2" data-name="Слой 2"><g id="Content"><path class="cls-1" d="M10 9.66a3.22 3.22 0 10-3.22-3.22A3.22 3.22 0 0010 9.66zm-.24-5.24v1.06a.75.75 0 00-.76.74H8a1.82 1.82 0 011.76-1.8z"/><path class="cls-1" d="M10 12.87c4.79 0 8.68-4.41 9.77-5.77a1.07 1.07 0 000-1.33C18.68 4.42 14.79 0 10 0S1.32 4.42.23 5.77a1.07 1.07 0 000 1.33c1.09 1.36 4.98 5.77 9.77 5.77zm0-11.09a4.66 4.66 0 11-4.66 4.66A4.66 4.66 0 0110 1.78z"/></g></g></svg>