<svg xmlns="http://www.w3.org/2000/svg" viewBox="0 0 20 20"><path d="M19.55 8.3l-2.34-.57a6.48 6.48 0 00-.49-1.19l1.2-2a.59.59 0 00-.08-.71l-1.67-1.67a.59.59 0 00-.71-.08l-2 1.2a6.48 6.48 0 00-1.19-.49L11.71.45a.61.61 0 00-.58-.45H8.79a.62.62 0 00-.58.45l-.56 2.34a6.48 6.48 0 00-1.19.49l-2-1.2a.59.59 0 00-.71.08L2.09 3.83a.58.58 0 00-.09.71l1.2 2a7.26 7.26 0 00-.49 1.19L.45 8.3a.59.59 0 00-.45.57v2.34a.58.58 0 00.45.56l2.26.58a7.26 7.26 0 00.49 1.19l-1.2 2a.58.58 0 00.09.71l1.66 1.66a.58.58 0 00.71.09l2-1.2a7.26 7.26 0 001.19.49l.56 2.26a.62.62 0 00.58.45h2.34a.61.61 0 00.58-.45l.56-2.26a7.26 7.26 0 001.19-.49l2 1.2a.58.58 0 00.71-.09l1.67-1.66a.59.59 0 00.08-.71l-1.2-2a6.48 6.48 0 00.49-1.19l2.34-.58a.58.58 0 00.45-.56V8.87a.59.59 0 00-.45-.57zM10 13a2.93 2.93 0 112.89-3A2.93 2.93 0 0110 13z" fill="#333" data-name="Слой 2"/></svg>