<svg xmlns="http://www.w3.org/2000/svg" viewBox="0 0 16.72 15"><defs><style>.cls-1{fill:#f7931e;}</style></defs><g id="Слой_2" data-name="Слой 2"><g id="Content"><path class="cls-1" d="M14.75,15H2a1.94,1.94,0,0,1-1.7-1,1.93,1.93,0,0,1,0-2L6.66,1a2,2,0,0,1,3.4,0l6.39,11.07A2,2,0,0,1,14.75,15ZM8.36,1a1,1,0,0,0-.85.49L1.11,12.54a1,1,0,0,0,0,1A1,1,0,0,0,2,14H14.75a1,1,0,0,0,.85-.49,1,1,0,0,0,0-1L9.21,1.47A1,1,0,0,0,8.36,1Z"/><rect class="cls-1" x="7.87" y="4.89" width="0.98" height="4.9"/><path class="cls-1" d="M8.36,12.07a.65.65,0,0,1-.65-.65.65.65,0,1,1,1.3,0A.65.65,0,0,1,8.36,12.07Z"/></g></g></svg>